<svg xmlns="http://www.w3.org/2000/svg" viewBox="0 0 24 24" fill="none" stroke="currentColor" stroke-width="2" stroke-linecap="round" stroke-linejoin="round">
  <path d="M22.05 2.31c-.33-.15-.77-.21-1.27-.04l-16.93 6.5c-.9.35-1.36.89-1.2 1.59.17.69.93 1.03 1.7 1.24l.32.08 4.08 1.43c.28.11.65.05.87-.14l7.63-6.3c.25-.2.45-.14.27.1l-6.16 6.86-.24.28c-.02.2-.01.04-.01.06 0 .03-.01.06-.01.07l-.39 4.06v.01c-.01.13-.03.27-.03.4 0 .84.45 1.23.87 1.23.6 0 1.06-.47 1.34-.94l1.14-1.87 2.36 2.21.05.04c.65.59 1.25.8 1.74.8.79 0 1.31-.53 1.49-1.56l2.77-13.25c.21-.8-.08-1.45-.54-1.7z"/>
</svg>
